<?xml version="1.0" encoding="UTF-8" standalone="no"?><!DOCTYPE svg PUBLIC "-//W3C//DTD SVG 1.1//EN" "http://www.w3.org/Graphics/SVG/1.1/DTD/svg11.dtd"><svg width="100%" height="100%" viewBox="0 0 120 120" version="1.1" xmlns="http://www.w3.org/2000/svg" xmlns:xlink="http://www.w3.org/1999/xlink" xml:space="preserve" style="fill-rule:evenodd;clip-rule:evenodd;stroke-linecap:round;stroke-linejoin:round;stroke-miterlimit:1.5;"><path id="heart" d="M60,26.062c8.513,-16.175 25.539,-16.175 34.053,-8.087c8.513,8.087 8.513,24.262 0,40.438c-5.96,12.131 -21.283,24.262 -34.053,32.35c-12.77,-8.088 -28.094,-20.219 -34.053,-32.35c-8.513,-16.176 -8.513,-32.351 0,-40.438c8.513,-8.088 25.54,-8.088 34.053,8.087Z" style="fill:none;stroke:#231f20;stroke-width:1px;"/><g id="hammer"><path d="M68.184,59.503l14.054,13.458l5.258,-5.067l-13.584,-14.245l1.493,-4.731l-7.221,-7.512l-12.773,11.514l7.721,8.48l5.052,-1.897Z" style="fill:none;stroke:#231f20;stroke-width:1px;"/></g><g id="text"><g><path d="M29.268,107.309l0,-8.034l1.54,0l0,2.894c0.475,-0.541 1.037,-0.811 1.688,-0.811c0.709,0 1.295,0.256 1.759,0.77c0.464,0.513 0.696,1.25 0.696,2.211c0,0.993 -0.237,1.759 -0.71,2.296c-0.473,0.537 -1.047,0.805 -1.723,0.805c-0.333,0 -0.661,-0.083 -0.984,-0.249c-0.323,-0.166 -0.602,-0.412 -0.836,-0.737l0,0.855l-1.43,0Zm1.529,-3.036c0,0.603 0.095,1.048 0.285,1.337c0.267,0.409 0.621,0.614 1.063,0.614c0.34,0 0.629,-0.145 0.869,-0.436c0.239,-0.29 0.359,-0.748 0.359,-1.373c0,-0.664 -0.121,-1.144 -0.362,-1.438c-0.241,-0.294 -0.55,-0.441 -0.926,-0.441c-0.369,0 -0.676,0.143 -0.921,0.43c-0.245,0.287 -0.367,0.722 -0.367,1.307Z" style="fill:#231f20;fill-rule:nonzero;"/><path d="M40.02,107.309l0,-0.871c-0.212,0.31 -0.491,0.555 -0.836,0.734c-0.345,0.179 -0.71,0.268 -1.093,0.268c-0.391,0 -0.742,-0.085 -1.052,-0.257c-0.311,-0.172 -0.536,-0.413 -0.674,-0.723c-0.139,-0.311 -0.209,-0.74 -0.209,-1.288l0,-3.683l1.54,0l0,2.674c0,0.819 0.029,1.32 0.085,1.505c0.057,0.184 0.16,0.33 0.31,0.438c0.15,0.108 0.34,0.162 0.57,0.162c0.263,0 0.498,-0.072 0.707,-0.217c0.208,-0.144 0.35,-0.323 0.427,-0.537c0.077,-0.214 0.115,-0.737 0.115,-1.57l0,-2.455l1.54,0l0,5.82l-1.43,0Z" style="fill:#231f20;fill-rule:nonzero;"/><path d="M43.045,100.7l0,-1.425l1.54,0l0,1.425l-1.54,0Zm0,6.609l0,-5.82l1.54,0l0,5.82l-1.54,0Z" style="fill:#231f20;fill-rule:nonzero;"/><rect x="46.163" y="99.275" width="1.54" height="8.034" style="fill:#231f20;fill-rule:nonzero;"/><path d="M51.95,101.489l0,1.228l-1.052,0l0,2.345c0,0.475 0.01,0.752 0.03,0.83c0.02,0.079 0.066,0.144 0.137,0.195c0.071,0.051 0.158,0.077 0.26,0.077c0.143,0 0.349,-0.05 0.619,-0.148l0.132,1.194c-0.358,0.154 -0.764,0.23 -1.217,0.23c-0.277,0 -0.528,-0.046 -0.75,-0.139c-0.223,-0.093 -0.387,-0.214 -0.491,-0.362c-0.104,-0.148 -0.176,-0.348 -0.216,-0.6c-0.033,-0.179 -0.05,-0.541 -0.05,-1.085l0,-2.537l-0.707,0l0,-1.228l0.707,0l0,-1.156l1.546,-0.899l0,2.055l1.052,0Z" style="fill:#231f20;fill-rule:nonzero;"/><path d="M54.103,107.309l-1.841,-5.82l1.496,0l1.091,3.814l1.003,-3.814l1.485,0l0.97,3.814l1.112,-3.814l1.518,0l-1.869,5.82l-1.479,0l-1.003,-3.743l-0.986,3.743l-1.497,0Z" style="fill:#231f20;fill-rule:nonzero;"/><path d="M61.748,100.7l0,-1.425l1.54,0l0,1.425l-1.54,0Zm0,6.609l0,-5.82l1.54,0l0,5.82l-1.54,0Z" style="fill:#231f20;fill-rule:nonzero;"/><path d="M67.535,101.489l0,1.228l-1.052,0l0,2.345c0,0.475 0.01,0.752 0.03,0.83c0.02,0.079 0.066,0.144 0.137,0.195c0.071,0.051 0.158,0.077 0.26,0.077c0.143,0 0.349,-0.05 0.62,-0.148l0.131,1.194c-0.358,0.154 -0.763,0.23 -1.216,0.23c-0.278,0 -0.528,-0.046 -0.751,-0.139c-0.223,-0.093 -0.387,-0.214 -0.491,-0.362c-0.104,-0.148 -0.176,-0.348 -0.216,-0.6c-0.033,-0.179 -0.049,-0.541 -0.049,-1.085l0,-2.537l-0.707,0l0,-1.228l0.707,0l0,-1.156l1.545,-0.899l0,2.055l1.052,0Z" style="fill:#231f20;fill-rule:nonzero;"/><path d="M70.138,99.275l0,2.954c0.497,-0.581 1.091,-0.871 1.781,-0.871c0.354,0 0.674,0.065 0.959,0.197c0.285,0.131 0.5,0.299 0.644,0.504c0.144,0.205 0.243,0.431 0.296,0.68c0.053,0.248 0.079,0.633 0.079,1.156l0,3.414l-1.54,0l0,-3.074c0,-0.61 -0.029,-0.998 -0.087,-1.162c-0.059,-0.165 -0.162,-0.295 -0.31,-0.392c-0.148,-0.097 -0.333,-0.145 -0.556,-0.145c-0.256,0 -0.484,0.062 -0.685,0.186c-0.201,0.124 -0.348,0.312 -0.441,0.562c-0.093,0.25 -0.14,0.62 -0.14,1.11l0,2.915l-1.54,0l0,-8.034l1.54,0Z" style="fill:#231f20;fill-rule:nonzero;"/><rect x="75.459" y="99.275" width="1.54" height="8.034" style="fill:#231f20;fill-rule:nonzero;"/><path d="M82.408,107.309l0,-0.871c-0.212,0.31 -0.491,0.555 -0.836,0.734c-0.345,0.179 -0.71,0.268 -1.093,0.268c-0.391,0 -0.742,-0.085 -1.052,-0.257c-0.311,-0.172 -0.536,-0.413 -0.674,-0.723c-0.139,-0.311 -0.209,-0.74 -0.209,-1.288l0,-3.683l1.54,0l0,2.674c0,0.819 0.029,1.32 0.085,1.505c0.057,0.184 0.16,0.33 0.31,0.438c0.15,0.108 0.34,0.162 0.57,0.162c0.263,0 0.498,-0.072 0.707,-0.217c0.208,-0.144 0.35,-0.323 0.427,-0.537c0.077,-0.214 0.115,-0.737 0.115,-1.57l0,-2.455l1.54,0l0,5.82l-1.43,0Z" style="fill:#231f20;fill-rule:nonzero;"/><path d="M87.033,107.309l-2.345,-5.82l1.616,0l1.096,2.97l0.318,0.992c0.084,-0.252 0.137,-0.418 0.159,-0.499c0.051,-0.164 0.106,-0.328 0.164,-0.493l1.107,-2.97l1.584,0l-2.313,5.82l-1.386,0Z" style="fill:#231f20;fill-rule:nonzero;"/></g></g></svg>