<?xml version="1.0" encoding="UTF-8" standalone="no"?><!DOCTYPE svg PUBLIC "-//W3C//DTD SVG 1.1//EN" "http://www.w3.org/Graphics/SVG/1.1/DTD/svg11.dtd"><svg width="100%" height="100%" viewBox="0 0 75 61" version="1.1" xmlns="http://www.w3.org/2000/svg" xmlns:xlink="http://www.w3.org/1999/xlink" xml:space="preserve" style="fill-rule:evenodd;clip-rule:evenodd;stroke-linejoin:round;stroke-miterlimit:1.41421;"><g id="heart"><path d="M36.89,11.277l0.67,1.044c-0.518,-0.795 -1.038,-1.592 -1.628,-2.335c-1.296,-1.633 -3.043,-3.384 -4.749,-4.56c-5.607,-3.866 -12.046,-4.101 -18.051,-1.124c-6.158,3.052 -9.805,8.51 -10.245,15.43c-0.137,2.149 0.147,4.705 0.618,6.821c0.214,0.961 0.513,1.901 0.811,2.839c0.127,0.424 0.253,0.852 0.439,1.254c0.534,1.163 1.041,2.347 1.717,3.433c1.102,1.77 2.328,3.465 3.603,5.114c5.355,6.922 12.995,12.044 20.677,15.996c1.647,0.847 3.372,1.536 5.078,2.257c0.643,0.272 1.305,0.497 1.966,0.721l0.118,0c0.63,-0.225 1.261,-0.451 1.873,-0.721c1.639,-0.723 3.295,-1.415 4.876,-2.257c7.533,-4.011 15.094,-9.16 20.382,-15.996c1.275,-1.649 2.501,-3.344 3.603,-5.114c0.676,-1.086 1.183,-2.27 1.717,-3.433c0.186,-0.402 0.312,-0.83 0.439,-1.254c0.298,-0.938 0.597,-1.878 0.811,-2.839c0.471,-2.116 0.755,-4.672 0.618,-6.821c-0.44,-6.92 -4.087,-12.378 -10.245,-15.43c-6.005,-2.977 -12.444,-2.742 -18.051,1.124c-1.706,1.176 -3.453,2.927 -4.749,4.56c-0.59,0.743 -1.11,1.54 -1.628,2.335" style="fill:#9e2017;"/><clipPath id="_clip1"><path d="M36.89,11.277l0.67,1.044c-0.518,-0.795 -1.038,-1.592 -1.628,-2.335c-1.296,-1.633 -3.043,-3.384 -4.749,-4.56c-5.607,-3.866 -12.046,-4.101 -18.051,-1.124c-6.158,3.052 -9.805,8.51 -10.245,15.43c-0.137,2.149 0.147,4.705 0.618,6.821c0.214,0.961 0.513,1.901 0.811,2.839c0.127,0.424 0.253,0.852 0.439,1.254c0.534,1.163 1.041,2.347 1.717,3.433c1.102,1.77 2.328,3.465 3.603,5.114c5.355,6.922 12.995,12.044 20.677,15.996c1.647,0.847 3.372,1.536 5.078,2.257c0.643,0.272 1.305,0.497 1.966,0.721l0.118,0c0.63,-0.225 1.261,-0.451 1.873,-0.721c1.639,-0.723 3.295,-1.415 4.876,-2.257c7.533,-4.011 15.094,-9.16 20.382,-15.996c1.275,-1.649 2.501,-3.344 3.603,-5.114c0.676,-1.086 1.183,-2.27 1.717,-3.433c0.186,-0.402 0.312,-0.83 0.439,-1.254c0.298,-0.938 0.597,-1.878 0.811,-2.839c0.471,-2.116 0.755,-4.672 0.618,-6.821c-0.44,-6.92 -4.087,-12.378 -10.245,-15.43c-6.005,-2.977 -12.444,-2.742 -18.051,1.124c-1.706,1.176 -3.453,2.927 -4.749,4.56c-0.59,0.743 -1.11,1.54 -1.628,2.335"/></clipPath><g clip-path="url(#_clip1)"><rect id="gradient" x="0.174" y="-7.401" width="78.056" height="66.725" style="fill:url(#_Linear2);"/></g></g><g id="hammer"><path d="M36.667,41.611l-5.585,4.962l-8.038,-8l4.623,-5.378l3.736,-0.038l0.113,-3.302l7.812,-8.378c3.536,-2.733 8.349,-4.197 12.744,-2.861c1.217,0.37 2.343,0.994 3.475,1.574c0.704,0.36 1.37,0.795 2.022,1.242c0.336,0.23 0.964,0.833 0.621,1.05c-2.32,1.469 -5.07,-0.321 -7.443,0.937c-0.629,0.333 -1.157,0.845 -1.637,1.371c-0.487,0.532 -0.917,1.13 -1.24,1.775c-2.692,5.38 7.143,14.224 10.768,17.324c1.88,1.608 -6.435,6.947 -7.008,7.16c-1.234,0.458 -2.821,-1.887 -3.029,-2.105c-2.209,-2.324 -3.171,-5.534 -5.24,-7.971c-1.357,-1.597 -2.262,-2.054 -4.189,-2.797c-0.607,-0.234 -2.267,-0.817 -2.543,0.34c-0.153,0.644 -0.187,1.317 -0.179,1.979c0.005,0.379 0.112,0.752 0.217,1.116l0,0Z" style="fill:#fff;"/></g><defs><linearGradient id="_Linear2" x1="0" y1="0" x2="1" y2="0" gradientUnits="userSpaceOnUse" gradientTransform="matrix(40.0174,51.4609,-51.4609,40.0174,10.3409,-3.20664)"><stop offset="0" style="stop-color:#9e2017;stop-opacity:1"/><stop offset="1" style="stop-color:#e45046;stop-opacity:1"/></linearGradient></defs></svg>