<?xml version="1.0" encoding="UTF-8" standalone="no"?><!DOCTYPE svg PUBLIC "-//W3C//DTD SVG 1.1//EN" "http://www.w3.org/Graphics/SVG/1.1/DTD/svg11.dtd"><svg width="100%" height="100%" viewBox="0 0 77 22" version="1.1" xmlns="http://www.w3.org/2000/svg" xmlns:xlink="http://www.w3.org/1999/xlink" xml:space="preserve" style="fill-rule:evenodd;clip-rule:evenodd;stroke-linecap:round;stroke-linejoin:round;stroke-miterlimit:1.5;"><rect x="0.505" y="0.284" width="75.791" height="21.599" style="fill:none;stroke:#231f20;stroke-width:0.24px;"/><g id="chars"><path d="M5.717,13.5l0,-0.679c-0.148,0.242 -0.343,0.433 -0.585,0.572c-0.241,0.14 -0.496,0.209 -0.765,0.209c-0.273,0 -0.519,-0.067 -0.736,-0.2c-0.217,-0.134 -0.375,-0.322 -0.472,-0.563c-0.097,-0.242 -0.146,-0.577 -0.146,-1.003l0,-2.868l1.078,0l0,2.083c0,0.637 0.02,1.027 0.059,1.171c0.04,0.144 0.112,0.257 0.217,0.341c0.105,0.084 0.238,0.126 0.399,0.126c0.184,0 0.349,-0.056 0.495,-0.168c0.145,-0.113 0.245,-0.252 0.299,-0.419c0.054,-0.166 0.08,-0.573 0.08,-1.222l0,-1.912l1.078,0l0,4.532l-1.001,0Z" style="fill:#231f20;fill-rule:nonzero;"/><path d="M11.539,13.5l-1.078,0l0,-2.313c0,-0.489 -0.023,-0.806 -0.069,-0.949c-0.046,-0.144 -0.121,-0.256 -0.224,-0.335c-0.104,-0.08 -0.228,-0.12 -0.374,-0.12c-0.187,0 -0.354,0.057 -0.503,0.171c-0.148,0.114 -0.25,0.264 -0.304,0.452c-0.055,0.188 -0.083,0.535 -0.083,1.041l0,2.053l-1.078,0l0,-4.532l1.001,0l0,0.666c0.356,-0.512 0.803,-0.768 1.343,-0.768c0.237,0 0.455,0.047 0.652,0.143c0.196,0.095 0.345,0.217 0.446,0.365c0.101,0.148 0.172,0.315 0.211,0.503c0.04,0.188 0.06,0.457 0.06,0.807l0,2.816Z" style="fill:#231f20;fill-rule:nonzero;"/><path d="M16.367,13.5l-1.001,0l0,-0.666c-0.166,0.259 -0.362,0.452 -0.589,0.578c-0.226,0.127 -0.454,0.19 -0.684,0.19c-0.468,0 -0.869,-0.209 -1.202,-0.629c-0.334,-0.42 -0.501,-1.005 -0.501,-1.756c0,-0.768 0.162,-1.352 0.487,-1.752c0.325,-0.399 0.735,-0.599 1.231,-0.599c0.455,0 0.849,0.21 1.181,0.631l0,-2.253l1.078,0l0,6.256Zm-2.876,-2.364c0,0.484 0.06,0.833 0.18,1.05c0.174,0.313 0.417,0.469 0.729,0.469c0.248,0 0.459,-0.117 0.632,-0.352c0.174,-0.235 0.261,-0.585 0.261,-1.052c0,-0.52 -0.084,-0.895 -0.253,-1.124c-0.169,-0.229 -0.385,-0.344 -0.648,-0.344c-0.256,0 -0.47,0.113 -0.642,0.339c-0.173,0.227 -0.259,0.564 -0.259,1.014Z" style="fill:#231f20;fill-rule:nonzero;"/><path d="M19.788,12.058l1.074,0.2c-0.138,0.438 -0.356,0.772 -0.654,1.001c-0.298,0.229 -0.671,0.343 -1.118,0.343c-0.708,0 -1.232,-0.257 -1.572,-0.772c-0.269,-0.412 -0.403,-0.933 -0.403,-1.562c0,-0.751 0.176,-1.339 0.529,-1.764c0.353,-0.426 0.799,-0.638 1.339,-0.638c0.606,0 1.084,0.222 1.434,0.668c0.35,0.445 0.518,1.127 0.502,2.046l-2.7,0c0.008,0.355 0.095,0.632 0.261,0.83c0.166,0.197 0.374,0.296 0.622,0.296c0.168,0 0.31,-0.051 0.425,-0.153c0.115,-0.103 0.202,-0.268 0.261,-0.495Zm0.061,-1.212c-0.007,-0.347 -0.088,-0.611 -0.241,-0.792c-0.154,-0.18 -0.34,-0.271 -0.56,-0.271c-0.235,0 -0.43,0.096 -0.583,0.286c-0.154,0.191 -0.229,0.45 -0.226,0.777l1.61,0Z" style="fill:#231f20;fill-rule:nonzero;"/><path d="M22.829,13.5l-1.077,0l0,-4.532l1,0l0,0.645c0.172,-0.305 0.326,-0.505 0.463,-0.602c0.136,-0.097 0.292,-0.145 0.466,-0.145c0.245,0 0.482,0.075 0.709,0.226l-0.334,1.045c-0.181,-0.13 -0.35,-0.196 -0.506,-0.196c-0.151,0 -0.278,0.046 -0.383,0.139c-0.105,0.092 -0.188,0.259 -0.248,0.501c-0.06,0.242 -0.09,0.748 -0.09,1.519l0,1.4Z" style="fill:#231f20;fill-rule:nonzero;"/><path d="M30.588,10.308l-1.063,0.213c-0.036,-0.236 -0.117,-0.413 -0.243,-0.533c-0.127,-0.119 -0.291,-0.179 -0.493,-0.179c-0.269,0 -0.483,0.103 -0.642,0.309c-0.16,0.206 -0.24,0.551 -0.24,1.035c0,0.538 0.081,0.917 0.243,1.139c0.163,0.222 0.381,0.333 0.654,0.333c0.205,0 0.372,-0.065 0.503,-0.194c0.13,-0.129 0.222,-0.352 0.276,-0.668l1.058,0.201c-0.11,0.54 -0.321,0.948 -0.633,1.224c-0.311,0.276 -0.73,0.414 -1.254,0.414c-0.595,0 -1.07,-0.209 -1.424,-0.627c-0.354,-0.418 -0.532,-0.997 -0.532,-1.737c0,-0.748 0.178,-1.33 0.534,-1.747c0.355,-0.417 0.836,-0.625 1.442,-0.625c0.496,0 0.89,0.119 1.183,0.356c0.292,0.238 0.503,0.6 0.631,1.086Z" style="fill:#231f20;fill-rule:nonzero;"/><path d="M31.155,11.17c0,-0.398 0.088,-0.784 0.265,-1.156c0.176,-0.373 0.426,-0.657 0.749,-0.854c0.324,-0.196 0.685,-0.294 1.084,-0.294c0.616,0 1.121,0.222 1.515,0.668c0.393,0.445 0.59,1.007 0.59,1.687c0,0.686 -0.198,1.254 -0.596,1.705c-0.398,0.451 -0.898,0.676 -1.501,0.676c-0.374,0 -0.73,-0.094 -1.068,-0.281c-0.339,-0.188 -0.597,-0.463 -0.773,-0.826c-0.177,-0.363 -0.265,-0.804 -0.265,-1.325Zm1.105,0.064c0,0.45 0.095,0.794 0.287,1.033c0.192,0.239 0.429,0.358 0.71,0.358c0.281,0 0.517,-0.119 0.707,-0.358c0.191,-0.239 0.286,-0.586 0.286,-1.041c0,-0.444 -0.095,-0.786 -0.286,-1.025c-0.19,-0.239 -0.426,-0.358 -0.707,-0.358c-0.281,0 -0.518,0.119 -0.71,0.358c-0.192,0.239 -0.287,0.584 -0.287,1.033Z" style="fill:#231f20;fill-rule:nonzero;"/><path d="M39.907,13.5l-1.078,0l0,-2.313c0,-0.489 -0.023,-0.806 -0.069,-0.949c-0.046,-0.144 -0.121,-0.256 -0.224,-0.335c-0.104,-0.08 -0.228,-0.12 -0.374,-0.12c-0.187,0 -0.354,0.057 -0.503,0.171c-0.148,0.114 -0.25,0.264 -0.304,0.452c-0.055,0.188 -0.083,0.535 -0.083,1.041l0,2.053l-1.078,0l0,-4.532l1.001,0l0,0.666c0.356,-0.512 0.803,-0.768 1.343,-0.768c0.237,0 0.455,0.047 0.652,0.143c0.196,0.095 0.345,0.217 0.446,0.365c0.101,0.148 0.172,0.315 0.211,0.503c0.04,0.188 0.06,0.457 0.06,0.807l0,2.816Z" style="fill:#231f20;fill-rule:nonzero;"/><path d="M40.62,12.207l1.082,-0.183c0.046,0.233 0.139,0.41 0.28,0.531c0.14,0.121 0.337,0.181 0.59,0.181c0.279,0 0.488,-0.057 0.629,-0.171c0.095,-0.079 0.142,-0.186 0.142,-0.32c0,-0.091 -0.026,-0.166 -0.077,-0.226c-0.053,-0.057 -0.174,-0.109 -0.36,-0.158c-0.87,-0.213 -1.42,-0.408 -1.653,-0.584c-0.322,-0.245 -0.483,-0.585 -0.483,-1.02c0,-0.393 0.139,-0.723 0.418,-0.99c0.278,-0.267 0.71,-0.401 1.296,-0.401c0.557,0 0.971,0.101 1.242,0.303c0.271,0.202 0.458,0.5 0.56,0.896l-1.016,0.209c-0.043,-0.176 -0.126,-0.312 -0.247,-0.405c-0.122,-0.094 -0.295,-0.141 -0.52,-0.141c-0.284,0 -0.487,0.044 -0.61,0.132c-0.081,0.063 -0.122,0.144 -0.122,0.243c0,0.086 0.035,0.158 0.107,0.218c0.097,0.08 0.433,0.192 1.007,0.337c0.574,0.145 0.974,0.323 1.202,0.533c0.225,0.214 0.337,0.511 0.337,0.892c0,0.416 -0.155,0.773 -0.467,1.071c-0.312,0.299 -0.774,0.448 -1.385,0.448c-0.555,0 -0.994,-0.125 -1.317,-0.375c-0.324,-0.25 -0.535,-0.59 -0.635,-1.02Z" style="fill:#231f20;fill-rule:nonzero;"/><path d="M47.236,8.968l0,0.956l-0.737,0l0,1.826c0,0.37 0.007,0.586 0.021,0.647c0.014,0.061 0.046,0.112 0.096,0.151c0.05,0.04 0.111,0.06 0.182,0.06c0.1,0 0.245,-0.038 0.434,-0.115l0.092,0.93c-0.251,0.12 -0.535,0.179 -0.852,0.179c-0.194,0 -0.369,-0.036 -0.525,-0.108c-0.156,-0.073 -0.27,-0.167 -0.343,-0.282c-0.073,-0.115 -0.124,-0.271 -0.152,-0.467c-0.023,-0.14 -0.034,-0.421 -0.034,-0.845l0,-1.976l-0.495,0l0,-0.956l0.495,0l0,-0.9l1.081,-0.7l0,1.6l0.737,0Z" style="fill:#231f20;fill-rule:nonzero;"/><path d="M49.015,13.5l-1.078,0l0,-4.532l1.001,0l0,0.645c0.172,-0.305 0.326,-0.505 0.462,-0.602c0.137,-0.097 0.293,-0.145 0.466,-0.145c0.246,0 0.482,0.075 0.71,0.226l-0.334,1.045c-0.181,-0.13 -0.35,-0.196 -0.506,-0.196c-0.151,0 -0.279,0.046 -0.383,0.139c-0.105,0.092 -0.188,0.259 -0.248,0.501c-0.06,0.242 -0.09,0.748 -0.09,1.519l0,1.4Z" style="fill:#231f20;fill-rule:nonzero;"/><path d="M53.721,13.5l0,-0.679c-0.149,0.242 -0.344,0.433 -0.585,0.572c-0.242,0.14 -0.497,0.209 -0.765,0.209c-0.274,0 -0.519,-0.067 -0.737,-0.2c-0.217,-0.134 -0.374,-0.322 -0.471,-0.563c-0.097,-0.242 -0.146,-0.577 -0.146,-1.003l0,-2.868l1.078,0l0,2.083c0,0.637 0.019,1.027 0.059,1.171c0.04,0.144 0.112,0.257 0.217,0.341c0.105,0.084 0.237,0.126 0.399,0.126c0.184,0 0.349,-0.056 0.494,-0.168c0.146,-0.113 0.246,-0.252 0.299,-0.419c0.054,-0.166 0.081,-0.573 0.081,-1.222l0,-1.912l1.078,0l0,4.532l-1.001,0Z" style="fill:#231f20;fill-rule:nonzero;"/><path d="M59.389,10.308l-1.062,0.213c-0.036,-0.236 -0.117,-0.413 -0.244,-0.533c-0.126,-0.119 -0.291,-0.179 -0.493,-0.179c-0.268,0 -0.482,0.103 -0.642,0.309c-0.16,0.206 -0.24,0.551 -0.24,1.035c0,0.538 0.081,0.917 0.244,1.139c0.162,0.222 0.38,0.333 0.654,0.333c0.204,0 0.372,-0.065 0.502,-0.194c0.13,-0.129 0.222,-0.352 0.276,-0.668l1.059,0.201c-0.11,0.54 -0.321,0.948 -0.633,1.224c-0.312,0.276 -0.73,0.414 -1.254,0.414c-0.596,0 -1.071,-0.209 -1.425,-0.627c-0.354,-0.418 -0.531,-0.997 -0.531,-1.737c0,-0.748 0.178,-1.33 0.533,-1.747c0.355,-0.417 0.836,-0.625 1.442,-0.625c0.496,0 0.89,0.119 1.183,0.356c0.293,0.238 0.503,0.6 0.631,1.086Z" style="fill:#231f20;fill-rule:nonzero;"/><path d="M62.073,8.968l0,0.956l-0.736,0l0,1.826c0,0.37 0.007,0.586 0.021,0.647c0.014,0.061 0.046,0.112 0.096,0.151c0.05,0.04 0.111,0.06 0.182,0.06c0.1,0 0.244,-0.038 0.434,-0.115l0.092,0.93c-0.251,0.12 -0.535,0.179 -0.852,0.179c-0.194,0 -0.369,-0.036 -0.525,-0.108c-0.156,-0.073 -0.271,-0.167 -0.343,-0.282c-0.073,-0.115 -0.124,-0.271 -0.152,-0.467c-0.023,-0.14 -0.034,-0.421 -0.034,-0.845l0,-1.976l-0.495,0l0,-0.956l0.495,0l0,-0.9l1.081,-0.7l0,1.6l0.736,0Z" style="fill:#231f20;fill-rule:nonzero;"/><path d="M62.821,8.354l0,-1.11l1.078,0l0,1.11l-1.078,0Zm0,5.146l0,-4.532l1.078,0l0,4.532l-1.078,0Z" style="fill:#231f20;fill-rule:nonzero;"/><path d="M64.754,11.17c0,-0.398 0.088,-0.784 0.265,-1.156c0.176,-0.373 0.426,-0.657 0.75,-0.854c0.323,-0.196 0.684,-0.294 1.083,-0.294c0.616,0 1.121,0.222 1.515,0.668c0.394,0.445 0.59,1.007 0.59,1.687c0,0.686 -0.198,1.254 -0.596,1.705c-0.398,0.451 -0.898,0.676 -1.501,0.676c-0.374,0 -0.73,-0.094 -1.068,-0.281c-0.339,-0.188 -0.597,-0.463 -0.773,-0.826c-0.177,-0.363 -0.265,-0.804 -0.265,-1.325Zm1.105,0.064c0,0.45 0.096,0.794 0.287,1.033c0.192,0.239 0.429,0.358 0.71,0.358c0.281,0 0.517,-0.119 0.707,-0.358c0.191,-0.239 0.286,-0.586 0.286,-1.041c0,-0.444 -0.095,-0.786 -0.286,-1.025c-0.19,-0.239 -0.426,-0.358 -0.707,-0.358c-0.281,0 -0.518,0.119 -0.71,0.358c-0.191,0.239 -0.287,0.584 -0.287,1.033Z" style="fill:#231f20;fill-rule:nonzero;"/><path d="M73.506,13.5l-1.078,0l0,-2.313c0,-0.489 -0.023,-0.806 -0.069,-0.949c-0.046,-0.144 -0.121,-0.256 -0.224,-0.335c-0.104,-0.08 -0.228,-0.12 -0.374,-0.12c-0.187,0 -0.354,0.057 -0.503,0.171c-0.148,0.114 -0.249,0.264 -0.304,0.452c-0.055,0.188 -0.083,0.535 -0.083,1.041l0,2.053l-1.078,0l0,-4.532l1.001,0l0,0.666c0.356,-0.512 0.803,-0.768 1.343,-0.768c0.237,0 0.455,0.047 0.652,0.143c0.196,0.095 0.345,0.217 0.446,0.365c0.101,0.148 0.172,0.315 0.211,0.503c0.04,0.188 0.06,0.457 0.06,0.807l0,2.816Z" style="fill:#231f20;fill-rule:nonzero;"/></g></svg>